<svg xmlns="http://www.w3.org/2000/svg" x="0px" y="0px" width="100" height="100" viewBox="0 0 40 40">
<path fill="#fff" d="M1.5 4.5H38.5V35.5H1.5z"></path><path fill="#4788c7" d="M38,5v30H2V5H38 M39,4H1v32h38V4L39,4z"></path><path fill="#b6dcfe" d="M6 9H34V26.875H6z"></path><path fill="#dff0fe" d="M6 19H34V27H6zM6 27H34V31H6z"></path><path fill="#dff0fe" d="M14.75 15A3.5 3.143 0 1 0 14.75 21.286A3.5 3.143 0 1 0 14.75 15Z"></path><path fill="#dff0fe" d="M11.25 15.786000000000001A2.625 2.357 0 1 0 11.25 20.5 2.625 2.357 0 1 0 11.25 15.786000000000001zM20 16.570999999999998A3.5 3.143 0 1 0 20 22.857 3.5 3.143 0 1 0 20 16.570999999999998z"></path><path fill="#dff0fe" d="M25.25 15A3.5 3.143 0 1 0 25.25 21.286 3.5 3.143 0 1 0 25.25 15zM32.25 16.572A1.75 1.571 0 1 0 32.25 19.714000000000002 1.75 1.571 0 1 0 32.25 16.572zM7.75 16.572A1.75 1.571 0 1 0 7.75 19.714000000000002 1.75 1.571 0 1 0 7.75 16.572z"></path><path fill="#dff0fe" d="M28.75 15.786000000000001A2.625 2.357 0 1 0 28.75 20.5A2.625 2.357 0 1 0 28.75 15.786000000000001Z"></path><path fill="#98ccfd" d="M6 27L34 27 34 25.384 25.25 20z"></path><path fill="#b6dcfe" d="M27 27L6 27 6 23 14.75 19z"></path>
</svg>